<svg xmlns="http://www.w3.org/2000/svg" xmlns:xlink="http://www.w3.org/1999/xlink" width="500" height="500" preserveAspectRatio="xMidYMid meet" version="1.0" viewBox="0 0 375 375" zoomAndPan="magnify"><defs><clipPath id="16c5f1c844"><path d="M 25.054688 25.054688 L 258 25.054688 L 258 258 L 25.054688 258 Z M 25.054688 25.054688" clip-rule="nonzero"/></clipPath><clipPath id="65789342f3"><path d="M 117 117 L 349.804688 117 L 349.804688 349.804688 L 117 349.804688 Z M 117 117" clip-rule="nonzero"/></clipPath><clipPath id="1b2101c39a"><path d="M 116 169.6875 L 259 169.6875 L 259 204.9375 L 116 204.9375 Z M 116 169.6875" clip-rule="nonzero"/></clipPath><clipPath id="70dddef5ee"><path d="M 105.175781 180 L 270 180 L 270 196 L 105.175781 196 Z M 105.175781 180" clip-rule="nonzero"/></clipPath></defs><g clip-path="url(#16c5f1c844)"><path fill="#412bad" fill-opacity="1" fill-rule="evenodd" d="M 25.054688 141.085938 C 25.054688 205.167969 77.003906 257.121094 141.085938 257.121094 L 233.914062 257.117188 C 246.726562 257.117188 257.117188 246.726562 257.117188 233.910156 C 257.117188 221.09375 246.726562 210.707031 233.914062 210.707031 L 141.085938 210.703125 C 102.636719 210.703125 71.46875 179.535156 71.46875 141.085938 C 71.46875 102.636719 102.636719 71.464844 141.085938 71.464844 L 233.914062 71.464844 C 246.726562 71.464844 257.117188 61.078125 257.117188 48.261719 C 257.117188 35.445312 246.726562 25.054688 233.914062 25.054688 L 141.085938 25.054688 C 77.003906 25.054688 25.054688 77.003906 25.054688 141.085938"/></g><g clip-path="url(#65789342f3)"><path fill="#412bad" fill-opacity="1" fill-rule="evenodd" d="M 349.941406 233.910156 C 349.941406 169.828125 297.992188 117.878906 233.914062 117.878906 L 141.085938 117.878906 C 128.269531 117.878906 117.878906 128.269531 117.878906 141.085938 C 117.878906 153.902344 128.269531 164.292969 141.085938 164.292969 L 233.914062 164.289062 C 272.359375 164.289062 303.527344 195.460938 303.527344 233.910156 C 303.527344 272.359375 272.359375 303.53125 233.914062 303.53125 L 141.085938 303.53125 C 128.269531 303.53125 117.878906 313.921875 117.878906 326.738281 L 117.878906 326.734375 C 117.878906 339.550781 128.269531 349.945312 141.085938 349.945312 L 233.914062 349.945312 C 297.992188 349.941406 349.941406 297.992188 349.941406 233.910156"/></g><path fill="#8c68ea" fill-opacity="1" fill-rule="evenodd" d="M 48.257812 141.085938 C 48.257812 192.140625 92.660156 233.910156 143.792969 233.910156 L 233.523438 233.910156 C 248.453125 233.910156 249.226562 210.9375 234.296875 210.707031 L 141.085938 210.703125 C 121.902344 210.703125 104.421875 202.894531 91.890625 190.285156 C 79.355469 177.828125 71.625 160.578125 71.46875 141.550781 L 71.46875 140.621094 C 71.625 121.589844 79.355469 104.339844 91.890625 91.886719 C 104.421875 79.28125 121.902344 71.464844 141.085938 71.464844 L 234.296875 71.464844 C 249.226562 71.234375 248.453125 48.261719 233.523438 48.261719 L 143.792969 48.261719 C 92.660156 48.261719 48.257812 90.03125 48.257812 141.085938"/><path fill="#d180bd" fill-opacity="1" fill-rule="evenodd" d="M 326.738281 233.910156 C 326.738281 182.859375 282.335938 141.085938 231.203125 141.085938 L 141.472656 141.085938 C 126.542969 141.085938 125.769531 164.058594 140.699219 164.292969 L 233.914062 164.289062 C 253.09375 164.289062 270.574219 172.105469 283.109375 184.714844 C 295.640625 197.171875 303.375 214.417969 303.527344 233.449219 L 303.527344 234.375 C 303.375 253.40625 295.640625 270.65625 283.109375 283.109375 C 270.574219 295.71875 253.09375 303.53125 233.914062 303.53125 L 140.699219 303.53125 C 125.769531 303.761719 126.542969 326.738281 141.472656 326.738281 L 231.203125 326.734375 C 282.335938 326.734375 326.738281 284.964844 326.738281 233.910156"/><g clip-path="url(#1b2101c39a)"><path fill="#412bad" fill-opacity="1" fill-rule="nonzero" d="M 200.960938 203.792969 C 198.765625 204.777344 196.339844 205.300781 193.753906 205.300781 C 183.925781 205.300781 175.964844 197.339844 175.964844 187.511719 C 175.964844 177.683594 183.925781 169.6875 193.753906 169.6875 C 196.308594 169.6875 198.734375 170.246094 200.960938 171.195312 C 194.703125 173.949219 190.347656 180.207031 190.347656 187.480469 C 190.347656 194.753906 194.703125 201.007812 200.960938 203.792969 Z M 145.527344 192.6875 L 147.035156 197.371094 L 148.476562 192.425781 L 153.027344 192.03125 L 149.359375 189.410156 L 150.800781 184.496094 L 146.871094 187.640625 L 142.511719 184.53125 L 144.476562 189.542969 L 140.351562 193.148438 Z M 120.527344 183.875 L 122.722656 185.808594 L 121.96875 182.828125 L 124.199219 181.253906 L 121.542969 181.023438 L 120.789062 178.042969 L 119.675781 180.859375 L 116.5 180.566406 L 119.019531 182.5625 L 118.003906 185.675781 Z M 229.464844 182.726562 L 227.957031 178.042969 L 226.515625 182.988281 L 221.960938 183.382812 L 225.632812 186.003906 L 224.191406 190.917969 L 228.121094 187.773438 L 232.480469 190.886719 L 230.511719 185.875 L 234.640625 182.269531 Z M 254.464844 191.542969 L 252.269531 189.609375 L 253.019531 192.589844 L 250.792969 194.164062 L 253.449219 194.390625 L 254.199219 197.371094 L 255.28125 194.554688 L 258.460938 194.851562 L 255.9375 192.851562 L 256.953125 189.738281 Z M 254.464844 191.542969"/></g><g clip-path="url(#70dddef5ee)"><path fill="#d180bd" fill-opacity="1" fill-rule="nonzero" d="M 161.449219 188.558594 L 161.480469 185.285156 L 158.46875 184.167969 L 161.582031 183.449219 L 161.742188 180.433594 L 163.382812 183.054688 L 166.003906 182.464844 L 164.363281 184.660156 L 166.003906 187.28125 L 163.316406 186.101562 Z M 133.042969 188.527344 L 134.976562 189.378906 L 133.796875 187.511719 L 134.976562 185.9375 L 133.109375 186.363281 L 131.929688 184.496094 L 131.796875 186.625 L 129.570312 187.152344 L 131.734375 187.9375 L 131.734375 190.296875 Z M 108.601562 186.824219 L 110.242188 188.132812 L 109.585938 186.035156 L 111.125 184.824219 L 109.191406 184.726562 L 108.535156 182.628906 L 107.882812 184.695312 L 105.589844 184.628906 L 107.488281 185.972656 L 106.867188 188.230469 Z M 211.707031 189.347656 L 209.019531 188.167969 L 210.660156 190.789062 L 209.019531 192.984375 L 211.640625 192.394531 L 213.28125 195.015625 L 213.445312 192 L 216.554688 191.277344 L 213.542969 190.164062 L 213.574219 186.890625 Z M 241.949219 186.890625 L 240.015625 186.035156 L 241.195312 187.90625 L 240.015625 189.476562 L 241.882812 189.050781 L 243.0625 190.917969 L 243.160156 188.757812 L 245.386719 188.230469 L 243.226562 187.445312 L 243.226562 185.085938 Z M 266.390625 188.59375 L 264.75 187.28125 L 265.40625 189.378906 L 263.867188 190.589844 L 265.800781 190.65625 L 266.453125 192.753906 L 267.109375 190.6875 L 269.402344 190.753906 L 267.503906 189.410156 L 268.125 187.152344 Z M 266.390625 188.59375"/></g></svg>