<svg xmlns="http://www.w3.org/2000/svg" width="32" height="32" fill="none" viewBox="0 0 32 32"><path stroke="#1E1E1E" stroke-linecap="round" stroke-linejoin="round" stroke-width="3" d="M21.3334 28V6.66667C21.3334 5.95942 21.0525 5.28115 20.5524 4.78105C20.0523 4.28095 19.374 4 18.6667 4H13.3334C12.6262 4 11.9479 4.28095 11.4478 4.78105C10.9477 5.28115 10.6667 5.95942 10.6667 6.66667V28M5.33341 9.33333H26.6667C28.1395 9.33333 29.3334 10.5272 29.3334 12V25.3333C29.3334 26.8061 28.1395 28 26.6667 28H5.33341C3.86066 28 2.66675 26.8061 2.66675 25.3333V12C2.66675 10.5272 3.86066 9.33333 5.33341 9.33333Z"/></svg>