<svg xmlns="http://www.w3.org/2000/svg" width="32" height="32" fill="none" viewBox="0 0 32 32"><path stroke="#1E1E1E" stroke-linecap="round" stroke-linejoin="round" stroke-width="3" d="M12.1201 12C12.4336 11.1089 13.0523 10.3574 13.8667 9.8788C14.6811 9.40017 15.6386 9.22521 16.5697 9.38491C17.5007 9.54461 18.3452 10.0287 18.9535 10.7513C19.5619 11.474 19.8948 12.3887 19.8934 13.3333C19.8934 16 15.8934 17.3333 15.8934 17.3333M16.0001 22.6666H16.0134M29.3334 16C29.3334 23.3638 23.3639 29.3333 16.0001 29.3333C8.63628 29.3333 2.66675 23.3638 2.66675 16C2.66675 8.63616 8.63628 2.66663 16.0001 2.66663C23.3639 2.66663 29.3334 8.63616 29.3334 16Z"/></svg>